<?xml version="1.0" encoding="UTF-8" standalone="no"?><!DOCTYPE svg PUBLIC "-//W3C//DTD SVG 1.1//EN" "http://www.w3.org/Graphics/SVG/1.1/DTD/svg11.dtd"><svg width="100%" height="100%" viewBox="0 0 32 32" version="1.1" xmlns="http://www.w3.org/2000/svg" xmlns:xlink="http://www.w3.org/1999/xlink" xml:space="preserve" style="fill-rule:evenodd;clip-rule:evenodd;stroke-linecap:round;stroke-linejoin:round;stroke-miterlimit:1.5;"><rect id="_09" x="0" y="0" width="32" height="32" style="fill:none;"/><clipPath id="_clip1"><rect x="0" y="0" width="32" height="32"/></clipPath><g clip-path="url(#_clip1)"><path d="M26.495,5.244c-1.805,-1.774 -4.028,-3.062 -6.461,-3.744l-1.908,1.883c-1.407,-0.239 -2.845,-0.239 -4.252,0l-1.908,-1.883c-2.433,0.682 -4.656,1.97 -6.461,3.744l0.671,2.599c-0.91,1.104 -1.629,2.354 -2.126,3.697l-2.579,0.716c-0.628,2.456 -0.628,5.032 0,7.488l2.579,0.716c0.497,1.343 1.216,2.593 2.126,3.697l-0.671,2.599c1.805,1.774 4.028,3.062 6.461,3.744l1.908,-1.883c1.407,0.239 2.845,0.239 4.252,0l1.908,1.883c2.433,-0.682 4.656,-1.97 6.461,-3.744l-0.671,-2.599c0.91,-1.104 1.629,-2.354 2.126,-3.697l2.579,-0.716c0.628,-2.456 0.628,-5.032 0,-7.488l-2.579,-0.716c-0.497,-1.343 -1.216,-2.593 -2.126,-3.697l0.671,-2.599Z" style="fill:#a2e2ff;"/><path d="M5.835,25.476l0.341,-1.319c-0.91,-1.104 -1.629,-2.354 -2.126,-3.697l-2.579,-0.716c-0.628,-2.456 -0.628,-5.032 0,-7.488l2.579,-0.716c0.497,-1.343 1.216,-2.593 2.126,-3.697l-0.671,-2.599c1.805,-1.774 4.028,-3.062 6.461,-3.744l1.908,1.883c1.407,-0.239 2.845,-0.239 4.252,0l1.908,-1.883c2.189,0.613 4.207,1.717 5.905,3.224l-20.104,20.752Z" style="fill:#c1faff;"/><path d="M26.495,5.244c-1.805,-1.774 -4.028,-3.062 -6.461,-3.744l-1.908,1.883c-1.407,-0.239 -2.845,-0.239 -4.252,0l-1.908,-1.883c-2.433,0.682 -4.656,1.97 -6.461,3.744l0.671,2.599c-0.91,1.104 -1.629,2.354 -2.126,3.697l-2.579,0.716c-0.628,2.456 -0.628,5.032 0,7.488l2.579,0.716c0.497,1.343 1.216,2.593 2.126,3.697l-0.671,2.599c1.805,1.774 4.028,3.062 6.461,3.744l1.908,-1.883c1.407,0.239 2.845,0.239 4.252,0l1.908,1.883c2.433,-0.682 4.656,-1.97 6.461,-3.744l-0.671,-2.599c0.91,-1.104 1.629,-2.354 2.126,-3.697l2.579,-0.716c0.628,-2.456 0.628,-5.032 0,-7.488l-2.579,-0.716c-0.497,-1.343 -1.216,-2.593 -2.126,-3.697l0.671,-2.599Z" style="fill:none;stroke:#0481e4;stroke-width:2px;"/><path d="M25,17.893l-1.211,2.998l-1.591,-0.223c-0.404,0.538 -0.88,1.027 -1.422,1.45l0.25,1.584l-2.977,1.264l-0.966,-1.281c-0.681,0.097 -1.364,0.099 -2.031,0.017l-0.945,1.298l-2.997,-1.211l0.222,-1.591c-0.537,-0.404 -1.026,-0.88 -1.449,-1.422l-1.585,0.25l-1.264,-2.976l1.281,-0.967c-0.096,-0.681 -0.099,-1.363 -0.016,-2.03l-1.299,-0.945l1.211,-2.998l1.591,0.222c0.404,-0.537 0.88,-1.026 1.422,-1.449l-0.25,-1.585l2.977,-1.263l0.966,1.281c0.681,-0.097 1.364,-0.1 2.031,-0.017l0.945,-1.299l2.997,1.212l-0.222,1.59c0.537,0.404 1.026,0.88 1.449,1.422l1.585,-0.249l1.264,2.976l-1.281,0.966c0.096,0.681 0.099,1.364 0.016,2.031l1.299,0.945Zm-9,2.045c2.175,0 3.938,-1.763 3.938,-3.938c0,-2.175 -1.763,-3.937 -3.938,-3.937c-2.175,0 -3.937,1.762 -3.937,3.937c0,2.175 1.762,3.938 3.937,3.938Z" style="fill:#2b8dff;"/></g></svg>