<?xml version="1.0" encoding="UTF-8" standalone="no"?><!DOCTYPE svg PUBLIC "-//W3C//DTD SVG 1.1//EN" "http://www.w3.org/Graphics/SVG/1.1/DTD/svg11.dtd"><svg width="100%" height="100%" viewBox="0 0 32 32" version="1.1" xmlns="http://www.w3.org/2000/svg" xmlns:xlink="http://www.w3.org/1999/xlink" xml:space="preserve" style="fill-rule:evenodd;clip-rule:evenodd;stroke-linecap:round;stroke-linejoin:round;stroke-miterlimit:1.5;"><rect id="_07" x="0" y="0" width="32" height="32" style="fill:none;"/><clipPath id="_clip1"><rect x="0" y="0" width="32" height="32"/></clipPath><g clip-path="url(#_clip1)"><path d="M1,4c0,-0.796 0.316,-1.559 0.879,-2.121c0.562,-0.563 1.325,-0.879 2.121,-0.879c5.748,0 18.252,0 24,0c0.796,0 1.559,0.316 2.121,0.879c0.563,0.562 0.879,1.325 0.879,2.121c0,5.748 0,18.252 0,24c0,0.796 -0.316,1.559 -0.879,2.121c-0.562,0.563 -1.325,0.879 -2.121,0.879c-5.748,0 -18.252,0 -24,0c-0.796,0 -1.559,-0.316 -2.121,-0.879c-0.563,-0.562 -0.879,-1.325 -0.879,-2.121c0,-5.748 0,-18.252 0,-24Z" style="fill:#fdad60;"/><path d="M2,30l28,-28l0,28l-28,0Z" style="fill:#f99b5e;"/><path d="M1,4c0,-0.796 0.316,-1.559 0.879,-2.121c0.562,-0.563 1.325,-0.879 2.121,-0.879c5.748,0 18.252,0 24,0c0.796,0 1.559,0.316 2.121,0.879c0.563,0.562 0.879,1.325 0.879,2.121c0,5.748 0,18.252 0,24c0,0.796 -0.316,1.559 -0.879,2.121c-0.562,0.563 -1.325,0.879 -2.121,0.879c-5.748,0 -18.252,0 -24,0c-0.796,0 -1.559,-0.316 -2.121,-0.879c-0.563,-0.562 -0.879,-1.325 -0.879,-2.121c0,-5.748 0,-18.252 0,-24Z" style="fill:none;stroke:#ef6f59;stroke-width:2px;"/><path d="M8,6l0,20" style="fill:none;stroke:#d45641;stroke-width:2px;"/><path d="M24,6l0,20" style="fill:none;stroke:#d45641;stroke-width:2px;"/><path d="M16,5.5l0,20" style="fill:none;stroke:#d45641;stroke-width:2px;"/><circle cx="8" cy="8" r="4" style="fill:#ffe2a5;stroke:#ef6f59;stroke-width:1px;"/><circle cx="24" cy="24" r="4" style="fill:#ffe2a5;stroke:#ef6f59;stroke-width:1px;"/><circle cx="16" cy="15.5" r="4" style="fill:#ffe2a5;stroke:#ef6f59;stroke-width:1px;"/></g></svg>