<?xml version="1.0" encoding="UTF-8" standalone="no"?><!DOCTYPE svg PUBLIC "-//W3C//DTD SVG 1.1//EN" "http://www.w3.org/Graphics/SVG/1.1/DTD/svg11.dtd"><svg width="100%" height="100%" viewBox="0 0 32 32" version="1.1" xmlns="http://www.w3.org/2000/svg" xmlns:xlink="http://www.w3.org/1999/xlink" xml:space="preserve" style="fill-rule:evenodd;clip-rule:evenodd;stroke-linecap:round;stroke-linejoin:round;stroke-miterlimit:1.5;"><rect id="_06" x="0" y="0" width="32" height="32" style="fill:none;"/><clipPath id="_clip1"><rect x="0" y="0" width="32" height="32"/></clipPath><g clip-path="url(#_clip1)"><g><path d="M1,4c0,-0.796 0.316,-1.559 0.879,-2.121c0.562,-0.563 1.325,-0.879 2.121,-0.879c5.748,0 18.252,0 24,0c0.796,0 1.559,0.316 2.121,0.879c0.563,0.562 0.879,1.325 0.879,2.121c0,5.748 0,18.252 0,24c0,0.796 -0.316,1.559 -0.879,2.121c-0.562,0.563 -1.325,0.879 -2.121,0.879c-5.748,0 -18.252,0 -24,0c-0.796,0 -1.559,-0.316 -2.121,-0.879c-0.563,-0.562 -0.879,-1.325 -0.879,-2.121c0,-5.748 0,-18.252 0,-24Z" style="fill:#de6176;"/><path d="M1,5c0,-0.796 0.316,-1.559 0.879,-2.121c0.562,-0.563 1.325,-0.879 2.121,-0.879c5.748,0 18.252,0 24,0c0.796,0 1.559,0.316 2.121,0.879c0.563,0.562 0.879,1.325 0.879,2.121c0,1.5 0,3 0,3l-30,0c0,0 0,-1.5 0,-3Z" style="fill:#f2b1a6;"/><path d="M2,8l29,0" style="fill:none;stroke:#980138;stroke-width:1px;"/><path d="M1,5c0,-0.796 0.316,-1.559 0.879,-2.121c0.562,-0.563 1.325,-0.879 2.121,-0.879c5.748,0 18.252,0 24,0c0.796,0 1.559,0.316 2.121,0.879c0.563,0.562 0.879,1.325 0.879,2.121c0,5.567 0,17.433 0,23c0,0.796 -0.316,1.559 -0.879,2.121c-0.562,0.563 -1.325,0.879 -2.121,0.879c-5.748,0 -18.252,0 -24,0c-0.796,0 -1.559,-0.316 -2.121,-0.879c-0.563,-0.562 -0.879,-1.325 -0.879,-2.121c0,-5.567 0,-17.433 0,-23Z" style="fill:none;stroke:#980138;stroke-width:2px;"/><path d="M18.043,22.526c0,-0.279 -0.037,-0.526 -0.11,-0.739c-0.073,-0.213 -0.193,-0.406 -0.36,-0.579c-0.166,-0.173 -0.381,-0.333 -0.644,-0.48c-0.263,-0.146 -0.584,-0.29 -0.964,-0.429c-0.653,-0.247 -1.245,-0.505 -1.778,-0.775c-0.533,-0.269 -0.989,-0.581 -1.369,-0.934c-0.379,-0.353 -0.674,-0.765 -0.884,-1.238c-0.209,-0.473 -0.314,-1.036 -0.314,-1.688c0,-0.567 0.093,-1.083 0.279,-1.549c0.187,-0.466 0.453,-0.872 0.799,-1.219c0.347,-0.346 0.761,-0.627 1.244,-0.844c0.483,-0.216 1.024,-0.354 1.623,-0.414l0,-1.138l1.599,0l0,1.168c0.573,0.08 1.092,0.243 1.558,0.489c0.466,0.247 0.863,0.566 1.189,0.959c0.326,0.393 0.578,0.858 0.754,1.394c0.177,0.536 0.265,1.137 0.265,1.803l-2.887,0c0,-0.799 -0.165,-1.397 -0.495,-1.793c-0.329,-0.397 -0.77,-0.595 -1.323,-0.595c-0.3,0 -0.558,0.045 -0.774,0.135c-0.217,0.09 -0.395,0.213 -0.535,0.37c-0.14,0.156 -0.243,0.341 -0.31,0.554c-0.066,0.213 -0.099,0.443 -0.099,0.69c0,0.246 0.033,0.469 0.099,0.669c0.067,0.2 0.182,0.384 0.345,0.554c0.163,0.17 0.38,0.33 0.649,0.48c0.27,0.15 0.605,0.304 1.004,0.464c0.646,0.26 1.234,0.526 1.764,0.799c0.529,0.273 0.983,0.588 1.363,0.944c0.38,0.357 0.674,0.771 0.884,1.244c0.21,0.473 0.315,1.032 0.315,1.678c0,0.586 -0.095,1.112 -0.285,1.579c-0.19,0.466 -0.458,0.869 -0.804,1.208c-0.346,0.34 -0.764,0.613 -1.254,0.82c-0.489,0.206 -1.034,0.339 -1.633,0.399l0,0.988l-1.588,0l0,-0.978c-0.553,-0.06 -1.088,-0.19 -1.604,-0.39c-0.516,-0.199 -0.974,-0.487 -1.373,-0.864c-0.4,-0.376 -0.719,-0.85 -0.959,-1.423c-0.24,-0.573 -0.36,-1.259 -0.36,-2.058l2.887,0c0,0.473 0.062,0.867 0.185,1.184c0.123,0.316 0.288,0.569 0.494,0.759c0.207,0.19 0.442,0.323 0.705,0.4c0.263,0.076 0.531,0.114 0.804,0.114c0.313,0 0.588,-0.043 0.824,-0.129c0.236,-0.087 0.435,-0.207 0.594,-0.36c0.16,-0.153 0.28,-0.335 0.36,-0.544c0.08,-0.21 0.12,-0.438 0.12,-0.685Z" style="fill:#fff;fill-rule:nonzero;"/></g></g></svg>